<svg width="118" height="84" viewBox="0 0 118 84" fill="none" xmlns="http://www.w3.org/2000/svg">
<path d="M24.251 53.1503C22.3138 56.4635 19.6542 56.5278 16.5678 55.788C12.5291 54.7908 8.39198 54.0832 4.32051 53.1503C1.00422 52.4105 -0.506161 50.4483 0.150528 47.1994C2.35044 36.7131 4.64885 26.2588 7.04577 15.8046C7.7353 12.8452 10.0337 11.3656 13.0545 11.9124C17.7826 12.7487 22.6093 13.5529 27.1405 15.0004C29.1105 15.6438 30.5881 17.8633 32 19.7933C46.1188 19.922 60.6317 15.5151 75.0788 22.238C75.4728 18.2814 77.8698 16.8983 80.595 15.7081C84.1083 14.1641 87.4574 12.2984 90.9707 10.7222C94.287 9.2104 96.7824 10.0789 98.3913 13.2634C103.087 22.4631 107.782 31.6307 112.412 40.8626C114.185 44.3366 113.298 46.8134 109.752 48.5826C106.042 50.4161 102.233 52.1531 98.5555 54.0832C95.6004 55.6272 93.0393 55.4663 90.8394 52.8286C88.935 53.5363 88.2783 54.4692 88.7708 56.5922C89.6902 60.7417 87.0306 63.122 81.3502 63.6689C79.5772 68.5582 78.7563 69.1694 73.6669 69.4589C71.4014 74.2196 68.4463 75.1203 63.6196 72.7078C62.6346 72.2252 61.157 71.9358 60.172 72.2574C55.3125 73.8979 51.2082 73.2224 47.071 69.9736C39.7489 64.2157 32.0657 58.9082 24.251 53.1825V53.1503ZM40.2414 23.4603C38.14 23.5246 36.4326 23.7176 34.7909 23.6211C31.9015 23.4281 30.6209 24.554 30.0956 27.4168C28.9464 33.818 27.5017 40.1549 25.9584 46.4918C25.4331 48.647 25.8928 50.0301 27.6987 51.3168C35.6446 57.0103 43.5249 62.736 51.3723 68.5261C53.6379 70.1988 55.805 69.7806 58.3989 68.8477C57.6109 68.1079 57.0527 67.6576 56.5602 67.1107C55.3781 65.8241 52.62 64.7947 54.4259 62.6717C56.3632 60.42 57.7751 63.122 59.1213 64.1192C61.354 65.7597 63.2256 67.8827 65.524 69.3302C66.4434 69.9092 68.1507 69.2016 69.497 69.1051C69.0373 68.1722 68.8403 67.0142 68.1179 66.3709C65.2613 63.8619 62.1749 61.578 59.2526 59.1333C58.0706 58.1362 55.9035 57.139 57.6437 55.1768C59.1869 53.4398 60.5332 55.0482 61.7152 56.0132C65.0971 58.7473 68.4463 61.5137 71.8282 64.2479C73.2729 65.4381 74.9803 66.7569 76.5235 64.9234C77.9354 63.2829 76.4907 61.8675 75.1445 60.6774C71.4999 57.4607 67.7567 54.2762 64.2763 50.9308C63.5868 50.2875 63.7509 48.8078 63.5211 47.7141C64.6375 47.8428 66.0822 47.5533 66.8374 48.1323C70.1537 50.77 73.2073 53.6972 76.425 56.4635C77.7056 57.5572 79.019 58.8438 80.5622 59.2942C81.8427 59.6802 83.4845 59.0369 84.962 58.8117C84.6337 57.4928 84.7322 55.788 83.9113 54.9517C77.9683 48.9365 72.0252 42.9213 65.6882 37.3242C61.5182 33.625 58.0377 33.8824 53.5066 37.1312C52.3902 37.9354 51.3395 38.8361 50.2231 39.6402C46.6442 42.1814 43.4592 42.6317 40.734 40.7339C37.6147 38.5787 37.155 35.4264 37.9102 32.0167C38.534 29.3147 39.3877 26.6448 40.2743 23.4603H40.2414ZM24.5137 36.0697C25.5644 31.2447 26.5495 26.4197 27.7315 21.6268C28.3225 19.2143 27.5345 18.1206 25.1047 17.7024C21.3288 17.0269 17.5528 16.1906 13.8097 15.3221C11.5769 14.8074 10.3949 15.3864 9.93521 17.7024C7.86663 27.3525 5.76523 36.9704 3.59815 46.5883C3.0728 48.8721 3.86083 49.8371 6.15924 50.2553C10.0665 50.9308 13.941 51.7671 17.7498 52.7C20.1467 53.3111 21.0333 52.4105 21.4601 50.2231C22.4123 45.4946 23.4958 40.7982 24.5466 36.1019L24.5137 36.0697ZM94.0243 13.3921C93.3348 13.5851 92.908 13.6494 92.5468 13.8103C88.3111 15.8368 84.0755 17.799 79.9383 19.9863C79.4458 20.2436 79.1831 21.8841 79.5115 22.5275C84.0755 31.6629 88.7708 40.7017 93.3676 49.805C94.1228 51.3168 95.075 51.7993 96.6839 50.9951C100.394 49.1295 104.105 47.2959 107.88 45.5268C109.654 44.6904 109.883 43.5968 109.063 41.9884C104.499 33.1104 99.9674 24.2001 95.4034 15.2899C95.0422 14.5823 94.4512 14.0033 93.9915 13.3599L94.0243 13.3921ZM88.9021 49.7406C86.2097 44.3366 83.1561 39.4151 81.3174 34.1075C78.8548 26.9987 74.1595 23.9107 66.8045 22.9135C60.3033 22.0128 53.9334 20.9835 47.465 22.431C46.677 22.5918 45.3965 22.817 45.2323 23.2995C43.7876 27.1595 42.0802 31.0195 41.4235 35.0404C40.9966 37.7424 43.7547 38.9969 46.3487 37.6137C47.9247 36.7774 49.3366 35.5872 50.7485 34.4935C57.4467 29.4112 62.0107 29.4112 68.5119 34.6544C69.6611 35.5872 70.7447 36.6166 71.7954 37.6459C76.5564 42.2779 81.3174 46.9099 86.2097 51.6706C87.0306 51.0916 87.8514 50.4805 88.9021 49.7406Z" fill="white"/>
<path d="M24.5465 36.0694C23.4958 40.7657 22.4123 45.4621 21.4601 50.1906C21.0332 52.3779 20.1467 53.2464 17.7498 52.6674C13.9081 51.7024 10.0337 50.8983 6.1592 50.2228C3.86079 49.8046 3.1056 48.8396 3.59811 46.5557C5.76519 36.9379 7.89943 27.32 9.93517 17.6699C10.4277 15.3861 11.6097 14.7749 13.8096 15.2896C17.5528 16.1581 21.3287 16.9944 25.1047 17.6699C27.5345 18.1202 28.3225 19.2139 27.7315 21.5943C26.5494 26.3871 25.5644 31.2122 24.5137 36.0372L24.5465 36.0694Z" fill="white"/>
<path d="M94.0571 13.3923C94.5168 14.0357 95.1078 14.6147 95.469 15.3224C100.033 24.2004 104.564 33.1106 109.128 42.0208C109.949 43.6292 109.719 44.7228 107.946 45.5592C104.17 47.3284 100.46 49.1619 96.7495 51.0275C95.1407 51.8317 94.1885 51.3492 93.4333 49.8374C88.8036 40.7342 84.1083 31.6631 79.5771 22.5599C79.2488 21.8844 79.5114 20.276 80.004 20.0187C84.1411 17.8314 88.3768 15.8692 92.6124 13.8427C92.9736 13.6497 93.4004 13.6175 94.09 13.4245L94.0571 13.3923Z" fill="white"/>
</svg>
