<svg width="85" height="84" viewBox="0 0 85 84" fill="none" xmlns="http://www.w3.org/2000/svg">
<path d="M63.672 47.8937C64.9839 46.5511 66.2957 45.2681 67.5771 43.9553C68.7364 42.7917 69.8958 41.628 71.0856 40.4346C72.1229 39.3903 73.1602 38.3162 74.1975 37.3017C75.2959 36.2276 76.6382 35.6607 78.1637 35.5414C80.2993 35.3922 82.0993 36.1381 83.5027 37.7493C84.5705 38.9726 85.0282 40.4346 84.9672 42.0457C84.9061 43.8061 84.0214 45.2084 82.862 46.4914C81.6417 47.8639 80.4518 49.2961 79.262 50.6984C78.3772 51.7128 77.462 52.7273 76.5772 53.7716C75.4789 55.0545 74.3806 56.3673 73.2823 57.6802C71.8178 59.3809 70.3839 61.0815 68.9195 62.7822C67.028 64.9603 64.6178 66.3029 61.8414 67.0787C60.0719 67.5561 58.2414 67.5561 56.4109 67.5561C49.5464 67.5561 42.7124 67.5561 35.8479 67.5561C34.414 67.5561 33.1631 68.0335 32.1258 69.0181C31.5462 69.5552 30.997 70.0922 30.4173 70.6293C30.2648 70.7486 30.2038 70.868 30.2648 71.0768C30.8139 72.9565 30.4173 74.5677 28.9834 75.9402C26.3597 78.4465 23.7664 80.9826 21.1426 83.5187C20.4714 84.1751 19.7392 84.1453 19.068 83.5187C16.9019 81.4003 14.7358 79.2819 12.6002 77.1635C10.1289 74.7467 7.68823 72.3001 5.21701 69.8535C3.69157 68.3617 2.16613 66.8698 0.640686 65.3482C0.335598 65.0498 0 64.7216 0 64.2442C0 63.8265 0.122034 63.4685 0.457632 63.1701C2.19664 61.4992 3.90513 59.7986 5.61363 58.0979C6.52889 57.2028 7.41365 56.2779 8.35943 55.4126C9.51876 54.3385 10.8917 53.8611 12.4781 54.1296C12.7222 54.1594 12.8137 54.1296 12.9052 53.9208C13.8205 52.2499 14.9798 50.7282 16.3527 49.4154C18.7019 47.1478 21.4782 45.5665 24.6206 44.6416C27.58 43.7763 30.6004 43.4779 33.6818 43.8061C35.6648 44.0149 37.5869 44.4924 39.4479 45.1786C39.6615 45.2681 39.9056 45.2979 40.1191 45.2979C46.1904 45.2979 52.2617 45.2979 58.3024 45.2979C60.4075 45.2979 62.1465 46.0737 63.4889 47.7147C63.5194 47.7744 63.5805 47.8042 63.6415 47.8937H63.672ZM28.5868 68.6899C29.0444 68.2722 29.4716 67.8545 29.8987 67.4368C31.5462 65.7957 33.5292 64.9304 35.9089 64.9304C37.953 64.9304 39.9971 64.9304 42.0412 64.9304C47.3497 64.9304 52.6278 64.9304 57.9363 64.9304C59.9499 64.9304 61.8109 64.5127 63.611 63.5878C64.6788 63.0507 65.6551 62.3943 66.4788 61.5291C67.3941 60.5146 68.2483 59.4704 69.1331 58.4261C70.506 56.8447 71.8789 55.2634 73.2213 53.6821C73.923 52.8765 74.5941 52.041 75.2959 51.2354C76.3942 49.9525 77.4925 48.6695 78.5908 47.3567C79.5061 46.2825 80.4213 45.2084 81.3671 44.1343C82.3434 43.0303 82.618 41.4789 81.9468 40.1661C80.8485 37.9283 77.9501 37.3614 76.1196 39.0621C74.9297 40.1959 73.8009 41.3893 72.6416 42.553C70.0788 45.1189 67.5161 47.6849 64.9839 50.2807C64.8618 50.4 64.8008 50.6089 64.8008 50.758C64.9228 52.1902 64.6483 53.5329 63.8245 54.786C62.5737 56.6657 60.8041 57.6205 58.5465 57.6802C57.1736 57.71 55.8007 57.6802 54.4278 57.6802C52.5973 57.6802 50.7667 57.6802 48.9667 57.6802C47.5938 57.6802 46.2514 57.6802 44.8785 57.6802C43.9328 57.6802 43.2921 56.8447 43.5361 56.0093C43.7192 55.4126 44.2378 55.0844 44.9701 55.0844C49.3938 55.0844 53.8481 55.0844 58.2719 55.0844C58.9431 55.0844 59.5533 54.965 60.133 54.6667C62.4211 53.5926 62.8177 50.2807 60.8347 48.7292C59.9804 48.0429 59.0041 47.834 57.9058 47.8639C51.8345 47.8639 45.7633 47.8639 39.7225 47.8639C39.3564 47.8639 38.9598 47.7744 38.6242 47.655C36.8852 46.939 35.0547 46.4616 33.1936 46.3124C30.0207 46.0439 26.9393 46.4019 23.98 47.5357C20.0748 49.0275 17.146 51.5935 15.1324 55.2037C15.0104 55.4126 15.0714 55.5319 15.2239 55.6811C16.3833 56.8149 17.5426 57.9487 18.7019 59.0825C20.5325 60.8727 22.3935 62.6927 24.224 64.4829C25.6579 65.8852 27.0614 67.2577 28.5563 68.6899H28.5868ZM20.1053 80.7737C20.1053 80.7737 20.3189 80.6246 20.3799 80.535C22.6376 78.357 24.8952 76.1789 27.1529 73.9709C28.0987 73.046 28.0987 71.9421 27.1529 71.0171C25.902 69.764 24.5901 68.5108 23.3088 67.2577C21.6308 65.6167 19.9528 63.9757 18.2748 62.3347C16.6883 60.7832 15.1324 59.2317 13.5459 57.6802C13.2714 57.4116 12.9968 57.1133 12.6917 56.9342C11.8069 56.3972 10.8917 56.5464 10.1594 57.2625C8.48146 58.8736 6.83398 60.5147 5.156 62.1258C4.4848 62.7524 3.81361 63.3789 3.1119 64.0055C8.81706 69.6446 14.4307 75.1644 20.0748 80.7439L20.1053 80.7737Z" fill="white"/>
<path d="M50.1565 6.71956C50.9192 5.70512 51.6209 4.66083 52.4447 3.7359C54.1227 1.85619 56.1973 0.603048 58.699 0.215172C62.299 -0.351725 65.5025 0.483693 68.2788 2.84079C69.5906 3.94475 70.5669 5.31725 71.2991 6.86876C71.8483 8.03239 72.2144 9.22583 72.3975 10.479C72.7941 13.2836 72.428 15.9689 71.1771 18.5349C70.2618 20.4146 69.1025 22.1153 67.6686 23.6369C66.2652 25.1288 64.8008 26.5908 63.2753 27.9931C61.5058 29.6043 59.6448 31.1259 57.8142 32.6774C55.6481 34.4975 53.482 36.3175 51.3158 38.1376C50.4921 38.8536 49.8819 38.8238 49.0582 38.1376C46.709 36.1683 44.3293 34.1991 42.0106 32.2C39.753 30.2607 37.4648 28.2915 35.2682 26.2626C33.3766 24.5022 31.6376 22.5927 30.2647 20.4146C28.7088 17.968 27.7935 15.3125 27.8545 12.3885C27.9155 9.10648 28.9834 6.15265 31.241 3.67621C32.7665 2.0352 34.6275 0.93126 36.8241 0.364364C38.5631 -0.0831859 40.3326 -0.113025 42.0717 0.245015C43.8412 0.632891 45.4276 1.40864 46.8005 2.57227C48.1429 3.70606 49.1802 5.04872 50.0345 6.54055C50.065 6.60022 50.126 6.68974 50.126 6.68974L50.1565 6.71956ZM50.2175 35.6611C50.7972 35.1539 51.3463 34.6765 51.926 34.229C53.2684 33.0952 54.6108 32.0211 55.9532 30.8873C58.1193 29.0374 60.2854 27.1577 62.4211 25.278C63.977 23.9055 65.4109 22.3838 66.7228 20.7726C67.8211 19.4002 68.7364 17.9382 69.3161 16.2971C69.8957 14.6561 70.0788 12.9554 69.8652 11.2249C69.5601 8.80811 68.6144 6.68972 66.7838 4.98903C64.7092 3.07949 62.238 2.36341 59.4617 2.75128C56.6854 3.13916 54.7633 4.81004 53.2379 7.01795C52.5057 8.1219 51.926 9.28551 51.4989 10.5387C51.3158 11.0757 50.8277 11.4039 50.248 11.4039C49.6684 11.4039 49.2107 11.0757 48.9972 10.5387C48.5395 9.28551 47.9599 8.06222 47.1971 6.95826C46.0988 5.37692 44.7564 4.06412 42.9564 3.28837C41.6445 2.72147 40.2716 2.54241 38.8377 2.6916C36.2139 2.96013 34.1088 4.1536 32.5529 6.24217C31.3936 7.76384 30.7224 9.49439 30.5698 11.4039C30.4783 12.4184 30.4783 13.4328 30.6308 14.4174C30.9969 16.7148 32.1258 18.7437 33.5597 20.5638C34.8105 22.1749 36.2445 23.6966 37.7699 25.0691C39.7225 26.8295 41.7361 28.5302 43.7191 30.2607C44.7564 31.1558 45.7937 32.0211 46.8615 32.8863C47.9599 33.8113 49.0887 34.7362 50.2175 35.691V35.6611Z" fill="white"/>
<path d="M20.1053 80.7741C14.4612 75.2244 8.84755 69.6748 3.1424 64.0357C3.81359 63.4091 4.51529 62.8124 5.18649 62.156C6.86448 60.5448 8.51195 58.9038 10.1899 57.2926C10.9222 56.5765 11.8374 56.4273 12.7222 56.9644C13.0578 57.1434 13.3018 57.4418 13.5764 57.7103C15.1629 59.2618 16.7188 60.8133 18.3053 62.3648C19.9833 64.0058 21.6613 65.6469 23.3393 67.2879C24.6206 68.541 25.902 69.7941 27.1834 71.0473C28.1291 71.9722 28.0986 73.0762 27.1834 74.0011C24.9257 76.1792 22.6681 78.3573 20.4104 80.5652C20.3189 80.6547 20.2274 80.7144 20.1358 80.8039L20.1053 80.7741Z" fill="white"/>
<path d="M50.2176 35.6601C49.0888 34.7053 47.9599 33.7804 46.8616 32.8554C45.8243 31.9902 44.7565 31.1249 43.7192 30.2298C41.7361 28.4993 39.7225 26.7986 37.77 25.0382C36.2445 23.6657 34.8106 22.1739 33.5597 20.5329C32.1258 18.683 30.997 16.684 30.6309 14.3866C30.4784 13.402 30.4784 12.3576 30.5699 11.373C30.7224 9.49333 31.3936 7.76282 32.553 6.21131C34.1089 4.15258 36.1835 2.92927 38.8378 2.66074C40.2717 2.51156 41.6446 2.66073 42.9565 3.25747C44.7565 4.03322 46.1294 5.34606 47.1972 6.92741C47.9599 8.03136 48.5091 9.25466 48.9972 10.5078C49.1803 11.0449 49.6684 11.373 50.2481 11.373C50.7973 11.373 51.2854 11.0449 51.499 10.5078C51.9261 9.25466 52.5057 8.091 53.238 6.98705C54.7329 4.77914 56.6549 3.13814 59.4618 2.72043C62.2686 2.33255 64.7398 3.04863 66.7839 4.95818C68.6144 6.62903 69.5602 8.77726 69.8653 11.194C70.0788 12.9246 69.9263 14.6252 69.3161 16.2662C68.7365 17.9073 67.7907 19.3693 66.7229 20.7417C65.4415 22.3828 63.9771 23.8746 62.4211 25.2471C60.2855 27.1268 58.1194 29.0065 55.9532 30.8564C54.6414 31.9902 53.2685 33.0941 51.9261 34.1981C51.3769 34.6755 50.7973 35.1529 50.2176 35.6303V35.6601Z" fill="white"/>
</svg>
