<svg width="84" height="85" viewBox="0 0 84 85" fill="none" xmlns="http://www.w3.org/2000/svg">
<path d="M43.2049 77C37.6727 76.914 33.5748 76.6559 29.5648 75.6523C27.8671 75.2222 26.1694 74.7347 24.7351 73.645C23.7399 72.8995 23.1838 71.9818 23.213 70.6914C23.3301 67.4511 23.3594 64.1821 23.5643 60.9418C23.8277 57.1566 24.3839 53.4001 25.4961 49.7584C26.2864 47.1776 27.3695 44.6255 29.3891 42.7329C30.6185 41.5859 32.1698 40.7256 33.6919 39.9514C36.5604 38.4889 39.6339 37.686 42.8829 38.0014C46.9222 38.3742 50.6103 39.7506 53.713 42.3601C55.5278 43.8799 56.5523 45.9158 57.4011 48.0378C58.8939 51.7943 59.5379 55.7229 59.8599 59.7087C60.0648 62.0315 60.094 64.3542 60.2111 66.6769C60.2697 67.9673 60.3282 69.2577 60.416 70.5481C60.5038 72.0105 59.8013 73.0428 58.572 73.7884C56.2888 75.1935 53.7423 75.8243 51.1372 76.1685C48.0345 76.5986 44.9318 76.7993 43.1756 76.9427L43.2049 77Z" fill="white"/>
<path d="M52.8934 22.9177C52.63 28.0506 50.6981 31.8645 46.1319 34.0438C42.2682 35.879 38.1703 35.1908 34.9212 32.4666C29.4769 27.9359 29.3598 18.9892 34.4529 14.2004C37.1165 11.7056 40.2778 10.7306 43.9073 11.5335C48.6199 12.5659 51.2543 15.5768 52.4544 19.9928C52.7471 21.0251 52.7763 22.1435 52.8934 22.889V22.9177Z" fill="white"/>
<path d="M20.4908 63.8659C12.9975 63.5218 7.37758 63.0057 5.00665 62.6902C5.00665 62.6902 2.89917 62.4035 1.20147 61.1131C0.411165 60.5109 -0.027895 59.794 0.00137565 58.7904C0.118458 56.2383 0.118459 53.6862 0.294083 51.134C0.498977 48.1518 0.938037 45.1982 1.81616 42.3593C2.43084 40.3234 3.30896 38.3448 4.88957 36.8537C5.8555 35.9647 7.0556 35.2765 8.25569 34.6743C10.5095 33.5273 12.939 32.8964 15.4855 33.1258C16.5393 33.2119 19.2614 33.3552 21.9836 35.1331C23.1837 35.9074 26.14 37.8286 26.3449 40.6101C26.462 42.3307 25.4375 42.9328 23.9447 45.7717C22.0714 49.3275 21.5446 52.4244 21.0177 55.5501C20.6664 57.6147 20.3445 60.4822 20.4908 63.8946V63.8659Z" fill="white"/>
<path d="M23.3594 21.2544C23.1545 25.2976 21.6324 28.2799 18.0614 30.0004C15.0172 31.4342 11.7975 30.8893 9.25091 28.7673C4.9774 25.1829 4.86031 18.1574 8.87039 14.4009C10.9486 12.451 13.4366 11.6768 16.3051 12.3076C19.9932 13.1105 22.1007 15.4906 23.0081 18.9603C23.213 19.7919 23.2715 20.6522 23.3594 21.2544Z" fill="white"/>
<path d="M59.8306 21.2544C60.0355 25.2976 61.5575 28.2799 65.1286 30.0004C68.1727 31.4342 71.3925 30.8893 73.939 28.7673C78.2125 25.1829 78.3296 18.1574 74.3195 14.4009C72.2413 12.451 69.7533 11.6768 66.8848 12.3076C63.1967 13.1105 61.0892 15.4906 60.1818 18.9603C59.9769 19.7919 59.9184 20.6522 59.8306 21.2544Z" fill="white"/>
<path d="M62.699 63.8659C70.1923 63.5218 75.8123 63.0057 78.1832 62.6902C78.1832 62.6902 80.2907 62.4035 81.9884 61.1131C82.7787 60.5109 83.2178 59.794 83.1885 58.7904C83.0714 56.2383 83.0714 53.6862 82.8958 51.134C82.6909 48.1518 82.2518 45.1982 81.3737 42.3593C80.759 40.3234 79.8809 38.3448 78.3003 36.8537C77.3344 35.9647 76.1343 35.2765 74.9342 34.6743C72.6803 33.5273 70.2509 32.8964 67.7043 33.1258C66.6506 33.2119 63.9284 33.3552 61.2062 35.1331C60.0061 35.9074 57.0498 37.8286 56.8449 40.6101C56.7278 42.3307 57.7523 42.9328 59.2451 45.7717C61.1184 49.3275 61.6453 52.4244 62.1722 55.5501C62.5234 57.6147 62.8454 60.4822 62.699 63.8946V63.8659Z" fill="white"/>
</svg>
