<svg width="84" height="84" viewBox="0 0 84 84" fill="none" xmlns="http://www.w3.org/2000/svg">
<path d="M44.2206 41.8038C44.7943 40.0473 45.3271 38.1683 45.9828 36.3301C46.7614 34.206 47.8269 32.2453 49.1383 30.448C49.2613 30.2438 49.3022 29.9578 49.3022 29.7127C48.9744 26.3632 49.0973 23.0545 49.835 19.7866C51.3923 12.965 55.3675 7.98148 61.4327 4.63193C65.4489 2.38528 69.7929 1.11898 74.3418 0.50626C76.063 0.261171 77.8252 0.138626 79.5464 0.0160815C80.9808 -0.106463 81.4725 0.465412 81.4316 1.93595C81.3086 6.02077 80.6529 10.0239 79.4235 13.9045C78.276 17.54 76.5958 20.9304 74.1369 23.9123C70.7354 28.038 66.3505 30.5705 61.1049 31.6326C58.0722 32.2453 54.9986 32.327 51.925 32.0411C51.5152 32.0411 51.2694 32.1228 51.0235 32.4496C49.4662 34.7779 48.3597 37.3513 47.581 40.0473C46.8024 42.7025 46.3516 45.4393 46.2287 48.1761C46.2287 48.6663 46.3516 49.1156 46.4745 49.6058C47.0893 52.4243 47.4991 55.2837 47.622 58.1431C47.622 58.2248 47.622 58.2656 47.622 58.3882C47.9089 58.3882 48.1958 58.3473 48.5236 58.3065C53.1545 57.8572 57.2526 59.2051 60.9409 61.9011C63.1129 63.4942 64.9571 65.3732 66.4734 67.579C66.6373 67.8241 66.8422 67.9058 67.1701 67.9058C71.3092 67.8241 75.2024 68.5185 78.4809 71.2145C81.1037 73.3795 82.62 76.2797 83.4396 79.5067C83.6855 80.4054 83.8085 81.3449 83.9724 82.2844C84.1363 83.3464 83.5626 84 82.4561 84C69.9568 84 57.4165 84 44.9173 84C32.418 84 19.9597 84 7.46038 84C5.53426 84 3.60814 83.9592 1.68202 84C0.411605 84 -0.244095 83.183 0.0837556 81.9576C0.944362 79.0574 2.74754 76.8924 5.24739 75.2585C7.54234 73.7471 10.0832 72.8484 12.7879 72.3583C13.1978 72.2766 13.4027 72.0723 13.6076 71.7455C15.1239 69.0087 17.1729 66.8029 19.8367 65.169C22.7054 63.3717 25.861 62.6364 29.2214 62.5547C31.5574 62.5138 33.8523 62.7589 36.0653 63.3308C36.2292 63.3717 36.4751 63.3308 36.639 63.2083C39.0569 61.4518 41.6388 60.0221 44.4665 59.1234C44.8353 59.0009 44.8763 58.7558 44.8353 58.4699C44.6304 56.5092 44.5484 54.5076 44.2206 52.5469C43.4419 47.7676 41.9666 43.1518 40.0405 38.6993C39.8766 38.2909 39.7126 38.1275 39.2209 38.1683C35.2047 38.4951 31.2295 38.2092 27.3773 36.9429C21.9677 35.1455 17.9106 31.6734 15.0009 26.8125C12.8699 23.2587 11.5585 19.419 10.7799 15.375C10.2881 12.8424 10.0012 10.269 9.91926 7.69555C9.91926 6.67434 10.452 6.06162 11.4765 6.06162C17.6647 6.18416 23.607 7.45046 29.1395 10.2281C33.9343 12.679 37.7046 16.192 39.9585 21.1346C41.5568 24.5659 42.2125 28.2013 42.2125 31.9594C42.2125 33.2665 42.0895 34.6145 42.0486 35.9217C42.0486 36.1259 42.0486 36.371 42.0895 36.5344C42.7862 38.25 43.5239 39.9656 44.1796 41.5996L44.2206 41.8038Z" fill="white"/>
</svg>
