<svg width="84" height="84" viewBox="0 0 84 84" fill="none" xmlns="http://www.w3.org/2000/svg">
<g clip-path="url(#clip0_737_574)">
<path d="M39.2109 0C41.0698 0 42.9302 0 44.7891 0C45.0007 0.0459375 45.2091 0.0984375 45.4223 0.136172C48.0014 0.587344 50.6625 0.764531 53.1448 1.52906C69.6987 6.63633 79.8295 17.6827 83.3602 34.6894C83.6686 36.1774 83.7916 37.7032 84.0016 39.2109V44.7891C83.9541 45.0007 83.8917 45.2091 83.8622 45.4223C83.6194 47.1237 83.4668 48.8447 83.1288 50.5263C79.8361 66.903 66.7291 79.9313 50.2868 83.1764C48.4723 83.5341 46.6233 83.7293 44.7907 84H39.2126C39.0288 83.9557 38.8484 83.8983 38.663 83.8704C36.7467 83.5849 34.8091 83.4028 32.9175 83.0091C16.5884 79.6048 3.33703 65.7579 0.636563 49.3188C0.390469 47.8144 0.21 46.2984 0 44.7891C0 42.9302 0 41.0698 0 39.2109C0.0475781 38.973 0.105 38.7368 0.141094 38.4989C0.421641 36.6384 0.602109 34.7566 0.989297 32.9175C4.34602 16.9083 17.7171 3.82922 33.7952 0.807188C35.5884 0.470859 37.4046 0.265781 39.2109 0ZM5.68312 26.8866C-0.871172 41.4816 2.32805 64.0451 21.6841 75.7411C39.8524 86.7202 61.1756 80.7023 71.5903 67.912C71.4345 67.7693 71.2835 67.6167 71.1195 67.4805C67.5954 64.5291 65.5856 60.7852 65.2345 56.1865C65.0721 54.0635 64.5504 52.0603 63.5102 50.1851C63.0623 49.3779 62.703 48.5116 62.3782 47.6454C61.4234 45.0991 61.6744 42.6628 63.1591 40.3741C64.3896 38.4759 66.273 37.5359 68.3452 36.8698C69.4608 36.5121 70.5698 36.1298 71.6609 35.7066C71.8692 35.6262 72.1645 35.2259 72.1137 35.0995C71.5263 33.6722 72.0349 32.363 72.4812 31.0455C72.8191 30.0464 72.5632 29.1916 71.797 28.5288C71.0276 27.8627 70.1154 27.7134 69.2114 28.2401C67.3821 29.3065 65.5889 29.1408 63.8695 28.0645C62.2109 27.0244 60.4127 26.6749 58.4948 26.6142C56.6738 26.5568 54.9888 26.0564 53.7009 24.652C52.71 23.5709 52.039 22.1796 52.7838 20.918C53.842 19.1248 54.1488 17.3135 54.2588 15.2972C54.3244 14.1209 55.0594 12.9511 55.6188 11.842C56.1077 10.8708 56.303 9.95039 56.07 8.86102C55.8436 7.80773 55.7829 6.70687 55.7681 5.62406C55.7616 5.14008 55.6402 4.92023 55.2087 4.81688C52.4836 4.16391 49.7602 3.50273 47.0285 2.87438C46.8087 2.82352 46.4149 2.91539 46.3099 3.07617C45.7144 3.98672 44.835 4.89234 44.6988 5.8882C44.3707 8.27039 42.1411 9.05625 41.0534 10.7625C40.9041 10.9971 40.5005 11.1316 40.192 11.1907C38.3529 11.5467 36.5597 11.1497 35.4244 9.74367C34.527 8.62969 33.5163 7.68469 32.527 6.68719C32.0512 6.20812 31.5853 5.66344 31.2998 5.06133C30.9209 4.26234 30.4451 4.23281 29.7347 4.51992C28.7454 4.92023 27.7348 5.26641 26.6044 5.68312C27.0441 6.05391 27.3066 6.29016 27.5838 6.51C29.511 8.04344 30.4752 10.0319 30.4762 12.4753C30.4762 13.615 31.0505 14.204 32.1989 14.2423C34.2234 14.3095 35.4982 15.6122 35.5048 17.6269C35.5064 18.1191 35.4966 18.6113 35.5048 19.1034C35.5212 20.0107 35.1717 20.7752 34.5023 21.3478C33.7772 21.968 33.0143 22.5602 32.1989 23.0508C31.8593 23.2542 31.2408 23.3395 30.9274 23.1623C30.3401 22.8293 29.9759 22.9868 29.5559 23.3592C29.3311 23.5577 29.0817 23.7284 28.8323 23.899C28.3024 24.2599 27.7955 24.593 28.0908 25.4018C28.1712 25.6233 28.0366 26.058 27.848 26.2221C26.6798 27.236 25.5675 28.3566 23.817 28.2926C22.3699 28.2401 20.918 28.2959 19.4693 28.2762C18.8377 28.268 18.5768 28.5338 18.5932 29.1605C18.6162 29.9808 18.544 30.806 18.6211 31.6198C18.6605 32.0398 18.8377 32.5238 19.1166 32.8305C20.0173 33.8198 20.9639 34.773 21.9598 35.6688C22.2846 35.9609 22.8047 36.161 23.246 36.1791C24.7472 36.2414 26.2533 36.1856 27.7561 36.2102C29.2868 36.2365 30.5173 37.3291 30.7437 38.8434C30.8159 39.3274 30.8618 39.8229 30.8421 40.3118C30.8142 41.0304 31.0472 41.3684 31.8281 41.3224C32.7813 41.2683 33.7427 41.288 34.6976 41.3191C36.4284 41.3766 37.7738 42.4971 37.9296 44.1C38.0051 44.8727 38.3677 45.0647 39.0436 45.0565C40.4102 45.0401 41.7785 45.0384 43.1452 45.0598C44.835 45.0877 46.1311 46.3969 46.159 48.0933C46.1754 49.0777 46.1573 50.062 46.1639 51.0464C46.1885 54.5426 46.3526 54.4212 43.2698 56.828C43.1402 56.928 43.0123 57.0757 42.8679 57.1003C42.5316 57.1545 42.105 57.2824 41.8589 57.138C41.2289 56.7689 40.8089 56.9543 40.3643 57.412C40.0805 57.7041 39.7474 57.9534 39.4209 58.1995C39.0567 58.4719 39.0042 58.759 39.0387 59.238C39.0731 59.7023 38.7171 60.2011 38.5202 60.6785C38.3447 61.1034 38.0674 61.507 37.9838 61.9467C37.8902 62.4487 37.9411 62.982 37.9657 63.5004C38.0166 64.5898 37.5867 65.4593 36.8025 66.1845C36.2004 66.7406 35.636 67.3444 34.9962 67.8546C34.3957 68.3337 34.23 68.9079 34.2415 69.6445C34.2645 71.2015 34.2645 72.7634 34.1824 74.317C34.0971 75.9298 32.7764 77.1389 31.1522 77.1816C30.2498 77.2045 29.3475 77.193 28.4452 77.1865C26.5273 77.1717 25.0835 75.8412 25.2262 73.9413C25.4051 71.5591 24.9162 69.405 23.6677 67.3952C23.5823 67.2574 23.4921 67.1098 23.4544 66.9539C23.2657 66.168 22.9655 65.3838 22.9392 64.5914C22.867 62.4881 22.8834 60.3799 22.9327 58.2766C22.9491 57.558 22.703 57.1331 22.1255 56.7295C19.9746 55.2284 17.8615 53.6714 15.7287 52.144C14.7263 51.427 14.1832 50.4984 14.2062 49.2335C14.2357 47.6208 14.1701 46.0048 14.2341 44.3953C14.2587 43.7637 14.4096 43.0795 14.7082 42.5332C15.0839 41.8474 14.9904 41.4323 14.4473 40.9123C12.5491 39.0994 10.6985 37.2373 8.81836 35.408C8.01117 34.6238 7.56984 33.723 7.62727 32.5664C7.67977 31.5033 7.65352 30.4336 7.62727 29.3672C7.6207 29.0801 7.58461 28.7159 7.40906 28.5272C6.88078 27.953 6.27867 27.4493 5.68148 26.8964L5.68312 26.8866Z" fill="white"/>
</g>
<defs>
<clipPath id="clip0_737_574">
<rect width="84" height="84" fill="white"/>
</clipPath>
</defs>
</svg>
